<svg id="svg" version="1.1" xmlns="http://www.w3.org/2000/svg" xmlns:xlink="http://www.w3.org/1999/xlink" width="400" height="400" viewBox="0, 0, 400,400"><g id="svgg"><path id="path0" d="M85.832 52.708 C 82.977 53.106,79.717 57.780,80.204 60.779 C 80.330 61.559,80.128 63.031,79.713 64.353 C 78.183 69.223,77.770 71.012,77.525 73.828 C 77.297 76.456,76.257 81.271,74.936 85.817 C 74.234 88.233,74.830 90.247,76.492 91.077 C 77.205 91.433,78.098 92.005,78.476 92.347 C 79.008 92.829,80.045 92.969,83.076 92.969 C 86.454 92.969,87.082 93.072,87.675 93.728 C 88.534 94.677,89.339 94.831,94.916 95.118 C 98.583 95.307,99.547 95.485,100.195 96.093 C 101.591 97.405,103.626 97.976,107.935 98.264 C 111.171 98.481,112.360 98.717,113.083 99.286 C 113.693 99.766,114.955 100.109,116.680 100.264 C 119.177 100.487,123.047 101.940,123.047 102.654 C 123.047 102.817,122.757 103.366,122.402 103.872 C 122.047 104.378,121.265 105.808,120.664 107.048 C 120.063 108.289,119.382 109.421,119.150 109.564 C 117.334 110.687,113.603 121.212,113.633 125.130 C 113.656 128.279,112.435 131.159,110.330 132.918 C 108.781 134.212,107.956 136.280,106.241 143.164 C 105.545 145.957,104.496 149.209,103.910 150.391 C 102.532 153.165,101.781 155.534,100.752 160.352 C 100.293 162.500,99.151 166.910,98.213 170.151 C 95.734 178.717,94.835 182.806,95.086 184.375 C 95.381 186.213,94.521 189.839,91.796 198.242 C 89.675 204.784,88.281 210.261,88.281 212.052 C 88.281 213.143,90.727 215.131,92.671 215.621 C 93.587 215.851,95.127 216.385,96.094 216.806 C 98.357 217.792,100.884 218.338,103.242 218.350 C 104.273 218.355,105.604 218.611,106.199 218.919 C 107.348 219.513,111.991 220.955,117.749 222.505 C 120.619 223.278,121.463 223.688,122.490 224.809 C 123.919 226.369,123.891 226.361,125.352 225.606 C 127.539 224.475,133.446 211.513,133.995 206.641 C 134.152 205.244,134.584 203.223,134.955 202.148 C 135.325 201.074,135.807 199.668,136.025 199.023 C 136.604 197.314,138.912 191.273,140.278 187.891 C 140.929 186.279,141.712 184.170,142.017 183.203 C 142.323 182.236,143.263 179.336,144.108 176.758 C 146.708 168.819,147.431 166.264,147.483 164.844 C 147.510 164.092,148.186 161.807,148.986 159.766 C 149.785 157.725,150.961 153.770,151.598 150.977 C 153.022 144.742,155.000 137.666,155.716 136.250 C 156.010 135.670,156.250 134.749,156.250 134.204 C 156.250 133.659,157.100 131.731,158.138 129.920 C 159.747 127.114,162.366 121.007,164.519 115.039 C 165.132 113.341,165.786 113.151,168.164 113.984 C 170.559 114.822,179.760 115.612,181.537 115.132 C 183.098 114.711,183.253 114.746,184.308 115.756 C 184.929 116.351,186.015 116.901,186.755 116.995 C 192.976 117.783,194.790 118.091,195.199 118.429 C 195.459 118.643,196.940 118.978,198.491 119.173 C 200.042 119.368,202.253 119.880,203.405 120.311 C 204.556 120.741,205.817 121.094,206.206 121.094 C 206.596 121.094,207.776 121.556,208.829 122.121 C 212.159 123.908,216.721 124.697,218.017 123.711 C 218.863 123.067,220.309 120.662,220.311 119.896 C 220.312 119.560,221.016 117.901,221.875 116.211 C 222.734 114.520,223.438 112.648,223.438 112.049 C 223.438 111.451,223.810 110.247,224.266 109.373 C 224.721 108.499,225.236 106.604,225.409 105.162 C 225.583 103.719,226.171 101.484,226.715 100.195 C 227.260 98.906,227.813 97.061,227.945 96.094 C 228.077 95.127,228.438 93.665,228.748 92.844 C 229.888 89.829,227.949 86.580,225.501 87.400 C 224.659 87.682,224.194 87.606,223.438 87.061 C 221.714 85.819,210.598 81.608,208.477 81.393 C 207.360 81.280,205.425 80.748,204.177 80.210 C 198.702 77.852,186.807 75.115,179.907 74.626 C 175.623 74.322,174.980 74.176,173.228 73.104 C 170.726 71.573,167.186 70.673,162.305 70.328 C 158.779 70.078,158.170 69.916,156.055 68.659 C 153.063 66.883,146.917 64.326,144.141 63.702 C 142.959 63.436,139.971 62.537,137.500 61.703 C 133.188 60.248,127.096 58.998,124.219 58.978 C 123.467 58.972,121.357 58.526,119.531 57.987 C 117.705 57.447,114.805 56.901,113.086 56.773 C 111.021 56.620,109.531 56.283,108.695 55.780 C 106.994 54.758,100.849 53.527,97.412 53.521 C 95.882 53.518,93.882 53.252,92.969 52.930 C 91.255 52.325,89.067 52.257,85.832 52.708 M245.117 171.710 C 239.027 173.916,234.501 175.328,232.092 175.773 C 229.114 176.322,225.279 178.998,221.719 183.008 C 220.194 184.727,217.692 187.363,216.159 188.867 C 213.164 191.807,212.176 193.185,206.621 202.171 C 200.637 211.850,200.417 212.254,200.028 214.268 C 199.822 215.337,198.230 219.814,196.492 224.219 C 192.472 234.402,192.114 235.780,192.416 239.916 C 192.562 241.923,192.478 243.836,192.195 244.922 C 191.107 249.103,190.944 251.263,191.379 255.727 C 191.748 259.497,191.720 260.534,191.202 262.536 C 190.865 263.835,190.695 265.230,190.824 265.636 C 190.953 266.042,191.107 269.237,191.166 272.738 C 191.274 279.023,191.295 279.159,192.864 283.789 C 193.738 286.367,194.541 289.097,194.649 289.855 C 195.145 293.348,199.058 300.272,202.638 303.991 C 207.366 308.904,207.953 309.435,211.709 312.206 C 214.464 314.239,215.075 314.887,215.351 316.073 C 215.534 316.856,216.066 317.855,216.533 318.293 C 218.439 320.079,231.923 327.410,235.349 328.523 C 236.285 328.827,237.613 329.777,238.669 330.898 C 240.724 333.078,242.857 334.030,250.917 336.364 C 253.893 337.226,257.018 338.387,257.862 338.946 C 259.269 339.877,259.517 339.922,260.851 339.486 C 262.174 339.053,262.685 339.138,266.526 340.427 C 269.816 341.531,271.801 341.932,275.522 342.243 L 280.296 342.641 284.386 341.089 C 286.636 340.235,289.424 339.256,290.583 338.913 C 293.435 338.070,295.525 336.771,297.837 334.405 C 298.903 333.314,300.046 332.421,300.376 332.420 C 302.301 332.416,306.438 327.412,306.878 324.555 C 307.084 323.217,305.835 321.150,302.782 317.773 C 302.199 317.129,301.437 315.986,301.089 315.234 C 300.740 314.482,299.469 312.752,298.263 311.388 C 297.058 310.025,295.040 307.554,293.779 305.897 C 291.355 302.713,288.978 300.391,288.143 300.391 C 287.867 300.391,287.038 299.842,286.301 299.172 C 284.130 297.199,282.563 296.679,281.367 297.538 C 279.060 299.193,277.469 299.988,276.449 299.994 C 275.850 299.997,274.670 300.352,273.828 300.781 C 271.868 301.781,271.388 301.764,269.405 300.625 C 268.508 300.109,266.830 299.491,265.676 299.252 C 264.523 299.012,261.895 297.940,259.836 296.869 C 255.642 294.688,255.703 294.703,254.144 295.516 C 251.606 296.839,241.150 286.368,239.341 280.692 C 238.690 278.651,238.464 278.339,237.196 277.734 C 235.654 276.999,234.560 274.607,233.960 270.658 C 233.719 269.071,233.187 267.004,232.777 266.064 C 232.367 265.123,232.031 263.529,232.031 262.521 C 232.031 261.513,231.752 259.749,231.411 258.600 C 230.358 255.055,232.924 246.217,238.275 234.961 C 246.024 218.659,245.250 219.831,249.274 218.303 C 251.240 217.555,259.267 216.039,261.328 216.025 C 261.865 216.022,263.145 216.445,264.171 216.966 C 266.003 217.895,266.171 217.908,273.241 217.686 L 280.444 217.459 282.116 219.260 C 283.887 221.167,287.110 222.843,291.797 224.295 C 293.985 224.973,294.660 225.428,296.680 227.584 C 298.025 229.022,299.356 230.091,299.805 230.097 C 300.234 230.102,301.025 230.357,301.563 230.664 C 302.839 231.394,304.858 231.400,305.458 230.677 C 305.720 230.361,307.280 229.307,308.924 228.333 C 310.569 227.359,313.232 225.637,314.844 224.507 C 324.593 217.669,329.240 214.575,330.265 214.237 C 332.142 213.619,333.345 209.705,331.836 209.126 C 331.482 208.990,331.250 208.399,331.250 207.632 C 331.250 206.612,330.793 205.890,328.918 203.950 C 327.431 202.412,326.442 201.004,326.190 200.066 C 325.972 199.257,325.074 197.637,324.194 196.466 C 323.314 195.294,321.917 193.183,321.089 191.774 C 319.456 188.993,318.258 188.165,316.408 188.535 C 315.760 188.664,315.234 188.603,315.234 188.397 C 315.234 186.592,310.844 182.422,308.943 182.422 C 308.292 182.422,307.012 181.702,305.469 180.469 C 304.125 179.395,302.796 178.516,302.515 178.516 C 302.235 178.516,301.158 177.996,300.124 177.361 C 298.065 176.097,295.111 175.198,287.171 173.417 C 284.304 172.774,281.404 171.945,280.726 171.573 C 279.700 171.012,278.243 170.882,272.070 170.804 C 265.516 170.720,253.216 170.704,252.148 170.778 C 251.934 170.793,251.143 170.690,250.391 170.550 C 249.349 170.355,248.093 170.631,245.117 171.710 " stroke="none" fill="#1c3c3c" fill-rule="evenodd"></path><path id="path1" d="M58.495 14.946 C 57.258 15.642,55.894 16.519,55.463 16.895 C 55.031 17.271,54.505 17.578,54.292 17.578 C 54.080 17.578,53.906 17.746,53.906 17.950 C 53.906 18.155,53.282 18.495,52.519 18.706 C 51.756 18.916,50.449 19.760,49.615 20.580 C 48.781 21.399,47.427 22.694,46.608 23.457 C 45.788 24.219,44.617 25.571,44.006 26.461 C 43.244 27.570,42.506 28.163,41.662 28.345 C 38.780 28.967,36.353 31.003,35.871 33.203 C 35.800 33.525,35.639 33.877,35.514 33.984 C 34.902 34.507,33.224 38.872,33.002 40.520 C 32.712 42.666,31.281 47.364,30.826 47.664 C 30.422 47.931,28.974 51.322,28.785 52.443 C 28.704 52.926,28.461 53.760,28.245 54.297 C 28.029 54.834,27.546 56.504,27.171 58.008 C 26.797 59.512,26.081 62.148,25.580 63.867 C 23.584 70.711,22.541 74.634,21.445 79.424 C 20.814 82.180,19.971 85.081,19.572 85.870 C 19.172 86.659,18.716 87.920,18.557 88.672 C 18.399 89.424,18.092 90.259,17.876 90.527 C 17.659 90.796,17.604 91.016,17.754 91.016 C 17.903 91.016,17.729 91.311,17.369 91.672 C 16.895 92.145,16.768 92.742,16.913 93.820 C 17.023 94.641,16.945 95.416,16.740 95.543 C 16.535 95.670,16.369 97.120,16.372 98.766 C 16.374 100.411,16.271 102.813,16.143 104.102 C 15.620 109.371,15.498 110.899,15.329 114.258 C 15.157 117.681,15.011 119.433,14.597 123.047 C 14.484 124.033,14.681 126.091,15.045 127.734 C 15.402 129.346,15.949 132.153,16.259 133.973 C 16.570 135.793,17.350 139.085,17.992 141.290 C 18.634 143.494,19.060 145.697,18.939 146.184 C 18.817 146.671,18.867 147.773,19.049 148.633 C 19.313 149.881,19.230 150.450,18.637 151.462 C 17.910 152.703,17.851 155.112,18.522 156.197 C 18.841 156.713,20.921 157.855,21.142 157.634 C 21.223 157.553,21.309 157.868,21.333 158.333 C 21.509 161.729,22.536 168.609,23.209 170.898 C 23.765 172.792,23.439 180.375,22.783 180.783 C 22.008 181.265,21.507 184.082,21.239 189.464 C 20.690 200.468,20.533 202.234,19.984 203.516 C 19.754 204.053,19.276 205.858,18.922 207.528 C 18.493 209.546,18.048 210.686,17.592 210.930 C 16.986 211.254,16.128 213.608,16.023 215.234 C 15.932 216.640,15.703 218.208,15.509 218.750 C 15.394 219.072,15.297 219.600,15.293 219.922 C 15.284 220.765,13.380 229.504,12.667 231.974 C 12.335 233.124,12.113 234.443,12.172 234.904 C 12.232 235.365,12.155 235.945,12.000 236.192 C 11.205 237.470,10.424 248.268,11.046 249.402 C 11.623 250.455,11.568 251.649,10.798 254.717 C 10.446 256.122,10.064 258.558,9.949 260.130 C 9.834 261.702,9.599 263.274,9.426 263.623 C 8.949 264.583,8.939 270.026,9.407 274.414 C 9.635 276.563,9.801 279.773,9.774 281.548 C 9.747 283.323,9.834 284.951,9.968 285.167 C 10.101 285.383,10.260 286.919,10.321 288.580 C 10.544 294.651,10.845 296.725,11.755 298.467 C 12.252 299.418,12.624 300.324,12.581 300.481 C 12.448 300.981,13.359 304.866,13.714 305.309 C 13.902 305.544,13.948 305.844,13.816 305.975 C 13.685 306.107,14.111 307.160,14.763 308.315 C 15.570 309.746,15.836 310.592,15.597 310.969 C 15.011 311.896,15.207 313.772,16.084 315.625 C 16.541 316.592,16.962 317.559,17.019 317.773 C 17.076 317.988,17.580 319.395,18.139 320.898 C 19.363 324.191,20.312 328.096,20.313 329.842 C 20.313 330.545,20.435 331.242,20.584 331.392 C 20.734 331.541,20.891 331.901,20.933 332.191 C 21.100 333.327,23.860 342.840,24.344 343.945 C 24.626 344.590,25.368 346.163,25.993 347.440 C 26.920 349.335,27.109 350.178,27.018 352.012 C 26.904 354.307,27.219 355.270,28.671 357.075 C 29.951 358.664,30.589 359.661,30.505 359.937 C 30.439 360.155,31.028 360.977,32.828 363.177 C 33.044 363.442,33.600 364.321,34.063 365.130 C 35.392 367.454,39.665 371.406,41.333 371.855 C 42.132 372.070,43.602 372.764,44.600 373.397 C 45.599 374.030,46.519 374.445,46.645 374.318 C 46.772 374.192,46.875 374.272,46.875 374.497 C 46.875 375.638,51.696 376.318,63.281 376.809 C 76.172 377.356,80.239 377.216,85.624 376.040 C 87.932 375.535,88.438 375.537,89.921 376.051 C 91.000 376.426,92.300 376.557,93.555 376.417 C 94.629 376.296,96.563 376.136,97.852 376.060 C 100.623 375.897,102.390 375.145,102.930 373.899 C 103.226 373.216,103.553 373.041,104.281 373.179 C 104.810 373.279,106.832 373.042,108.774 372.653 C 110.716 372.263,113.799 371.647,115.625 371.283 C 117.451 370.918,120.313 370.556,121.984 370.478 C 123.656 370.400,125.717 370.149,126.565 369.921 C 127.870 369.570,128.342 369.626,129.636 370.286 C 131.329 371.150,143.359 371.507,143.359 370.694 C 143.359 370.192,157.256 370.511,158.660 371.045 C 159.233 371.262,160.024 371.458,160.417 371.480 C 160.811 371.501,161.924 371.606,162.891 371.713 C 164.651 371.907,167.017 372.135,170.313 372.427 C 171.279 372.512,172.334 372.662,172.656 372.760 C 172.979 372.857,173.857 373.124,174.609 373.353 C 175.361 373.583,177.646 373.978,179.688 374.231 C 181.729 374.484,184.006 374.943,184.749 375.250 C 185.562 375.587,187.897 375.865,190.609 375.948 C 194.441 376.066,195.463 376.240,197.423 377.111 C 198.692 377.674,199.807 378.058,199.902 377.963 C 199.996 377.868,200.804 378.194,201.697 378.688 C 203.153 379.492,204.741 379.874,208.398 380.302 C 209.043 380.377,210.493 380.693,211.621 381.004 C 212.749 381.315,213.672 381.476,213.672 381.362 C 213.672 381.248,213.892 381.328,214.160 381.540 C 214.429 381.751,215.967 381.947,217.578 381.974 C 220.556 382.025,221.607 382.140,222.656 382.533 C 222.979 382.653,223.945 382.868,224.805 383.010 C 225.664 383.152,226.906 383.600,227.565 384.005 C 228.224 384.410,230.421 385.011,232.448 385.341 C 234.475 385.671,237.058 386.111,238.188 386.318 C 239.879 386.628,240.676 386.559,242.680 385.930 C 245.214 385.136,247.462 384.912,247.105 385.490 C 246.992 385.674,247.333 386.232,247.864 386.730 C 248.394 387.228,248.828 387.496,248.828 387.325 C 248.828 387.154,249.084 387.226,249.397 387.486 C 249.710 387.745,250.137 387.852,250.347 387.723 C 250.556 387.593,250.825 387.645,250.944 387.839 C 251.122 388.125,254.309 388.755,256.089 388.856 C 256.322 388.869,256.807 389.173,257.165 389.531 C 257.654 390.020,258.329 390.146,259.866 390.036 C 260.992 389.955,262.617 389.890,263.477 389.891 C 264.336 389.892,265.951 389.892,267.066 389.892 C 268.181 389.891,269.924 389.609,270.939 389.264 C 271.955 388.919,273.767 388.564,274.967 388.474 C 276.167 388.384,277.939 388.212,278.906 388.091 C 281.272 387.794,283.427 387.796,285.562 388.097 C 286.537 388.234,288.294 388.154,289.468 387.919 C 290.641 387.684,292.217 387.421,292.969 387.336 C 294.403 387.172,296.272 386.910,298.242 386.595 C 298.887 386.492,301.436 386.206,303.906 385.960 C 306.377 385.714,308.936 385.342,309.593 385.133 C 310.395 384.879,311.186 384.893,311.996 385.175 C 312.866 385.479,313.788 385.474,315.293 385.159 C 316.443 384.919,317.822 384.761,318.359 384.808 C 319.941 384.947,321.925 384.878,324.219 384.604 C 326.828 384.292,327.153 384.292,328.982 384.602 C 329.776 384.736,332.940 384.554,336.014 384.198 C 339.087 383.842,342.568 383.492,343.750 383.421 C 346.263 383.269,349.248 382.840,349.690 382.567 C 349.861 382.462,350.000 382.562,350.000 382.789 C 350.000 383.471,352.984 383.257,354.775 382.448 C 356.847 381.512,357.935 381.112,358.251 381.171 C 358.385 381.196,359.846 380.093,361.497 378.720 C 363.149 377.347,365.017 376.110,365.649 375.971 C 366.280 375.833,366.797 375.557,366.797 375.360 C 366.797 375.162,367.030 375.000,367.314 375.000 C 369.116 375.000,374.481 368.284,374.050 366.568 C 373.908 366.001,374.141 365.416,374.755 364.795 C 375.977 363.559,376.955 361.592,377.166 359.944 C 377.261 359.204,378.043 356.951,378.903 354.936 C 379.764 352.921,380.471 350.854,380.474 350.343 C 380.476 349.832,380.929 348.008,381.479 346.289 C 382.029 344.570,382.549 342.725,382.635 342.188 C 382.720 341.650,382.977 340.441,383.206 339.499 C 383.434 338.558,383.528 337.695,383.415 337.582 C 383.302 337.469,383.399 337.149,383.630 336.870 C 383.908 336.535,383.947 335.464,383.746 333.709 C 383.579 332.249,383.498 330.879,383.567 330.664 C 384.454 327.884,384.932 322.824,384.710 318.555 C 384.665 317.695,384.681 316.201,384.744 315.234 C 385.100 309.826,385.101 302.604,384.747 300.391 C 384.524 298.994,384.274 296.182,384.192 294.141 C 384.109 292.100,383.952 288.408,383.842 285.938 C 383.731 283.467,383.586 278.633,383.520 275.195 C 383.418 269.933,383.281 268.729,382.652 267.578 C 382.123 266.608,381.932 265.571,381.995 264.005 C 382.123 260.796,381.448 258.669,380.049 257.878 C 378.841 257.196,378.539 256.445,377.116 250.586 C 376.750 249.082,376.302 247.660,376.120 247.425 C 375.937 247.190,375.879 246.907,375.991 246.796 C 376.102 246.684,375.997 246.085,375.757 245.464 C 375.518 244.844,375.253 243.998,375.170 243.585 C 374.878 242.133,373.329 237.690,372.947 237.207 C 372.734 236.938,372.646 236.719,372.751 236.719 C 372.856 236.719,372.786 235.972,372.596 235.059 C 372.406 234.146,372.149 232.871,372.026 232.227 C 371.902 231.582,371.183 229.473,370.427 227.539 C 368.725 223.187,368.098 220.628,368.185 218.388 C 368.230 217.226,367.826 215.572,366.951 213.344 C 365.692 210.136,365.545 209.266,366.111 208.361 C 366.258 208.125,366.208 206.983,366.000 205.822 C 365.359 202.241,365.300 201.836,365.021 199.159 C 364.872 197.730,364.902 196.324,365.087 196.034 C 365.586 195.255,365.678 175.453,365.190 173.927 C 364.967 173.229,364.429 172.410,363.994 172.105 C 363.280 171.605,363.222 171.241,363.394 168.310 C 363.568 165.358,363.765 164.836,364.736 164.762 C 366.013 164.664,366.154 163.013,365.345 157.617 C 364.179 149.843,366.204 130.138,368.321 128.655 C 369.111 128.101,369.357 126.462,369.747 119.154 C 369.867 116.906,370.126 114.873,370.322 114.637 C 370.518 114.401,370.956 112.461,371.295 110.326 C 372.581 102.227,373.392 98.505,374.225 96.866 C 374.610 96.110,375.010 94.967,375.115 94.327 C 375.451 92.272,376.570 88.210,378.152 83.308 C 379.000 80.680,379.971 77.516,380.309 76.276 C 380.648 75.037,381.260 72.793,381.671 71.289 C 382.081 69.785,382.669 67.642,382.977 66.526 C 383.311 65.321,383.421 64.059,383.249 63.418 C 383.044 62.650,383.206 61.827,383.812 60.564 C 385.277 57.508,386.341 53.192,386.945 47.852 C 387.066 46.777,387.340 45.336,387.552 44.649 C 387.805 43.829,387.806 42.921,387.555 42.012 C 387.345 41.249,387.250 40.625,387.344 40.625 C 387.675 40.625,385.842 37.296,385.015 36.394 C 384.555 35.894,384.205 35.366,384.235 35.222 C 384.500 33.984,382.226 31.343,379.883 30.165 C 379.023 29.733,378.016 29.044,377.645 28.633 C 377.273 28.222,375.867 27.388,374.520 26.779 C 373.172 26.171,370.815 25.082,369.281 24.360 C 367.748 23.638,366.290 23.047,366.043 23.047 C 365.796 23.047,364.913 22.700,364.082 22.275 C 363.250 21.851,361.895 21.339,361.070 21.138 C 355.518 19.785,350.645 18.387,350.439 18.087 C 350.305 17.894,349.404 17.683,348.438 17.620 C 347.471 17.556,346.556 17.304,346.405 17.059 C 346.223 16.764,344.117 16.578,340.196 16.511 C 336.300 16.444,334.069 16.248,333.699 15.941 C 333.069 15.418,329.030 15.317,325.864 15.745 C 322.140 16.248,310.795 18.736,310.393 19.138 C 309.761 19.770,308.628 19.594,307.699 18.720 C 306.818 17.892,304.863 17.885,303.206 18.703 C 300.910 19.836,293.654 21.891,293.221 21.531 C 292.620 21.033,288.834 21.539,284.863 22.649 C 282.887 23.201,281.056 23.417,278.808 23.362 C 277.036 23.319,273.125 23.307,270.117 23.334 C 267.109 23.362,264.297 23.375,263.867 23.363 C 263.438 23.350,261.064 23.371,258.594 23.409 C 256.123 23.447,253.500 23.297,252.765 23.075 C 252.030 22.854,249.569 22.572,247.296 22.449 C 245.023 22.325,242.373 22.162,241.406 22.085 C 237.287 21.756,225.861 19.666,225.179 19.117 C 224.146 18.285,214.203 17.459,203.320 17.301 C 192.192 17.139,189.922 17.266,180.859 18.564 C 178.604 18.887,174.912 19.335,172.656 19.558 C 170.400 19.782,167.412 20.297,166.016 20.702 C 163.584 21.408,159.966 21.989,146.376 23.855 C 139.353 24.820,133.920 24.727,131.690 23.605 C 130.738 23.126,129.057 22.897,125.638 22.782 C 123.034 22.695,120.200 22.386,119.339 22.096 C 118.478 21.806,115.840 21.273,113.477 20.912 C 111.113 20.552,108.875 20.094,108.503 19.895 C 107.732 19.483,102.801 18.653,97.070 17.971 C 94.805 17.702,92.896 17.267,92.526 16.937 C 92.095 16.552,90.539 16.291,87.727 16.132 C 85.439 16.002,83.474 15.747,83.362 15.565 C 83.249 15.383,82.201 15.234,81.032 15.234 C 79.863 15.234,78.906 15.072,78.906 14.873 C 78.906 14.666,77.492 14.589,75.593 14.691 C 73.099 14.827,71.993 14.723,71.120 14.272 C 68.739 13.040,61.162 13.445,58.495 14.946 M92.743 52.332 C 93.291 52.541,95.285 52.795,97.175 52.897 C 101.731 53.143,106.400 54.111,108.727 55.291 C 110.026 55.949,111.266 56.250,112.681 56.250 C 113.816 56.250,116.480 56.711,118.602 57.274 C 120.725 57.837,123.955 58.446,125.781 58.628 C 130.002 59.047,134.263 59.982,137.500 61.200 C 138.896 61.726,141.699 62.588,143.728 63.117 C 147.915 64.209,152.894 66.254,156.680 68.436 C 159.058 69.806,159.493 69.922,162.279 69.922 C 166.064 69.922,171.061 71.145,173.582 72.689 C 175.302 73.742,175.969 73.891,180.557 74.240 C 187.562 74.773,199.291 77.518,204.443 79.830 C 205.705 80.396,207.427 80.859,208.268 80.859 C 209.778 80.859,223.572 85.989,224.023 86.718 C 224.138 86.905,224.842 86.959,225.586 86.838 C 229.935 86.133,230.568 93.048,226.896 101.154 C 226.454 102.131,225.955 104.110,225.788 105.552 C 225.621 106.995,225.112 108.890,224.656 109.764 C 224.201 110.637,223.828 111.792,223.828 112.329 C 223.828 113.446,222.879 115.894,222.101 116.783 C 221.812 117.113,221.276 118.430,220.910 119.709 C 220.049 122.716,217.759 125.192,216.115 124.894 C 212.072 124.160,210.199 123.604,209.147 122.826 C 208.485 122.336,207.255 121.809,206.413 121.656 C 205.571 121.503,204.056 121.056,203.045 120.662 C 202.034 120.269,200.013 119.833,198.553 119.694 C 197.093 119.555,195.547 119.224,195.117 118.959 C 194.276 118.440,189.124 117.578,186.868 117.578 C 185.846 117.578,185.174 117.265,184.282 116.373 C 183.112 115.204,183.027 115.182,181.390 115.641 C 180.102 116.001,179.005 116.009,176.750 115.674 C 175.125 115.432,172.786 115.234,171.551 115.234 C 170.072 115.234,168.779 114.966,167.762 114.447 C 165.706 113.399,165.464 113.561,164.437 116.671 C 162.937 121.216,159.950 127.945,158.208 130.703 C 157.292 132.152,156.543 133.787,156.543 134.336 C 156.543 134.884,156.297 135.708,155.997 136.166 C 155.697 136.624,155.200 138.123,154.893 139.496 C 153.084 147.586,150.886 155.823,149.537 159.570 C 148.686 161.934,147.936 164.658,147.870 165.625 C 147.804 166.592,147.391 168.438,146.952 169.727 C 145.040 175.347,142.927 181.943,142.634 183.203 C 142.460 183.955,141.925 185.332,141.447 186.263 C 140.968 187.193,139.968 189.702,139.225 191.837 C 138.482 193.972,137.438 196.704,136.906 197.908 C 136.373 199.112,135.937 200.522,135.938 201.041 C 135.938 201.560,135.571 202.703,135.122 203.582 C 134.545 204.714,134.378 205.558,134.550 206.475 C 134.722 207.391,134.517 208.435,133.850 210.038 C 133.331 211.285,132.778 212.744,132.621 213.281 C 131.772 216.185,126.793 225.316,125.710 225.956 C 124.224 226.835,122.838 226.484,122.092 225.042 C 121.503 223.903,120.766 223.431,119.597 223.445 C 118.915 223.454,112.689 221.659,108.008 220.105 C 106.504 219.606,104.219 219.085,102.930 218.947 C 99.927 218.627,97.902 218.134,95.703 217.188 C 94.736 216.771,93.196 216.242,92.280 216.011 C 86.912 214.660,86.796 210.833,91.707 197.070 C 93.673 191.560,94.688 187.087,94.588 184.375 C 94.505 182.124,95.902 175.848,97.979 169.141 C 98.611 167.100,99.602 163.264,100.180 160.618 C 101.352 155.257,102.366 152.056,103.500 150.134 C 103.917 149.427,104.877 146.427,105.633 143.467 C 107.886 134.651,108.179 133.935,110.115 132.510 C 112.082 131.063,113.011 128.792,113.108 125.195 C 113.233 120.580,116.728 110.824,118.904 109.018 C 119.501 108.523,122.456 102.750,122.199 102.582 C 120.373 101.388,119.395 101.066,116.796 100.804 C 114.683 100.591,113.425 100.253,112.742 99.716 C 111.960 99.101,110.867 98.878,107.544 98.655 C 103.268 98.369,101.496 97.884,99.778 96.533 C 99.009 95.928,97.915 95.730,94.234 95.528 C 88.615 95.219,88.272 95.151,87.084 94.111 C 86.232 93.367,85.785 93.298,82.813 93.455 C 79.695 93.620,77.734 93.259,77.734 92.521 C 77.734 92.343,77.133 91.947,76.399 91.640 C 74.266 90.749,73.639 88.450,74.628 85.154 C 75.935 80.800,76.634 77.526,76.928 74.388 C 77.231 71.148,77.613 69.442,79.151 64.481 C 79.446 63.530,79.688 61.899,79.688 60.857 C 79.688 58.935,81.085 55.538,82.672 53.604 C 83.807 52.220,90.293 51.401,92.743 52.332 M272.166 170.280 C 278.212 170.245,279.074 170.324,280.565 171.044 C 281.479 171.486,283.545 172.123,285.156 172.459 C 291.521 173.789,298.669 175.830,299.983 176.693 C 300.744 177.193,301.923 177.793,302.603 178.026 C 303.282 178.260,304.827 179.257,306.036 180.241 C 307.481 181.418,308.608 182.031,309.327 182.031 C 310.736 182.031,312.862 183.685,314.474 186.035 C 315.602 187.678,315.911 187.891,317.176 187.891 C 318.759 187.891,319.875 188.848,321.502 191.602 C 322.010 192.461,323.283 194.351,324.330 195.801 C 325.378 197.251,326.414 199.087,326.633 199.879 C 326.878 200.769,327.931 202.257,329.381 203.767 C 330.995 205.448,331.751 206.556,331.798 207.306 C 331.835 207.907,332.096 208.814,332.377 209.322 C 333.496 211.344,332.063 214.844,330.116 214.844 C 329.523 214.844,328.018 215.843,316.992 223.562 C 313.340 226.119,309.341 228.722,308.105 229.345 C 306.870 229.969,305.859 230.632,305.859 230.818 C 305.859 231.889,303.519 232.108,301.282 231.247 C 297.951 229.965,297.976 229.982,296.344 227.815 C 295.208 226.307,294.388 225.657,293.023 225.179 C 285.383 222.508,283.777 221.735,281.856 219.801 L 279.924 217.856 272.657 218.124 L 265.390 218.391 263.881 217.367 L 262.371 216.342 257.650 216.989 C 247.676 218.356,246.463 219.112,243.057 226.076 C 238.238 235.931,233.203 247.788,233.203 249.282 C 233.203 249.576,232.841 250.492,232.398 251.318 C 231.248 253.463,231.016 256.168,231.786 258.429 C 232.136 259.456,232.422 261.237,232.422 262.388 C 232.422 263.635,232.671 264.860,233.038 265.420 C 233.376 265.937,233.918 267.908,234.241 269.801 C 235.035 274.449,235.957 276.474,237.527 277.021 C 238.746 277.446,239.827 279.176,239.857 280.749 C 239.915 283.841,251.735 296.124,253.557 294.986 C 254.861 294.172,256.305 294.498,260.191 296.483 C 262.292 297.556,264.946 298.629,266.088 298.866 C 267.230 299.102,268.937 299.741,269.881 300.284 L 271.599 301.272 273.257 300.466 C 274.169 300.023,275.594 299.538,276.423 299.388 C 278.310 299.047,279.259 298.568,280.352 297.402 C 281.760 295.901,285.485 296.906,286.880 299.163 C 287.011 299.375,287.614 299.658,288.221 299.791 C 289.465 300.065,291.461 302.042,294.544 306.055 C 295.700 307.559,297.643 309.932,298.863 311.329 C 300.082 312.726,301.345 314.483,301.668 315.235 C 301.991 315.987,303.022 317.522,303.960 318.647 C 307.477 322.868,307.535 322.972,307.310 324.649 C 306.903 327.685,302.796 332.806,300.765 332.811 C 300.434 332.812,299.382 333.608,298.428 334.580 C 295.353 337.713,293.090 338.788,281.564 342.591 C 278.133 343.722,271.375 342.829,264.880 340.384 C 262.854 339.621,262.116 339.502,261.409 339.825 C 260.011 340.462,258.950 340.316,257.443 339.281 C 256.679 338.756,254.033 337.770,251.563 337.089 C 243.491 334.865,240.696 333.649,238.384 331.355 C 237.252 330.231,235.843 329.194,235.253 329.052 C 229.681 327.705,214.844 318.420,214.844 316.280 C 214.844 315.244,213.122 313.531,210.015 311.477 C 203.443 307.133,195.410 296.162,194.108 289.753 C 193.878 288.621,193.059 285.938,192.287 283.789 C 190.983 280.158,190.877 279.525,190.790 274.805 C 190.738 272.012,190.579 268.473,190.436 266.941 C 190.247 264.907,190.342 263.597,190.791 262.087 C 191.309 260.342,191.337 259.462,190.970 256.474 C 190.481 252.492,190.695 247.423,191.407 246.092 C 191.851 245.264,192.017 241.895,191.813 237.881 C 191.694 235.532,192.485 232.950,196.175 223.646 C 197.879 219.352,199.436 214.974,199.637 213.919 C 200.253 210.671,212.569 191.038,215.176 189.149 C 215.983 188.564,218.253 186.210,220.221 183.917 C 224.712 178.685,229.242 175.393,231.950 175.391 C 232.657 175.391,234.942 174.786,237.028 174.048 C 239.114 173.309,242.490 172.114,244.531 171.392 L 248.242 170.078 256.836 170.198 C 261.563 170.265,268.461 170.301,272.166 170.280 " stroke="none" fill="#c3cbdb" fill-rule="evenodd"></path><path id="path2" d="M95.410 53.410 C 96.216 53.494,97.534 53.494,98.340 53.410 C 99.146 53.325,98.486 53.256,96.875 53.256 C 95.264 53.256,94.604 53.325,95.410 53.410 M110.449 56.526 C 110.933 56.619,111.724 56.619,112.207 56.526 C 112.690 56.433,112.295 56.356,111.328 56.356 C 110.361 56.356,109.966 56.433,110.449 56.526 M160.254 70.206 C 161.060 70.291,162.378 70.291,163.184 70.206 C 163.989 70.122,163.330 70.053,161.719 70.053 C 160.107 70.053,159.448 70.122,160.254 70.206 M77.434 72.266 C 77.434 73.018,77.515 73.325,77.613 72.949 C 77.711 72.573,77.711 71.958,77.613 71.582 C 77.515 71.206,77.434 71.514,77.434 72.266 M177.441 74.499 C 178.032 74.588,178.999 74.588,179.590 74.499 C 180.181 74.409,179.697 74.336,178.516 74.336 C 177.334 74.336,176.851 74.409,177.441 74.499 M206.548 81.136 C 207.033 81.229,207.737 81.226,208.110 81.128 C 208.483 81.030,208.086 80.954,207.227 80.958 C 206.367 80.962,206.062 81.042,206.548 81.136 M79.985 93.245 C 80.471 93.338,81.174 93.335,81.548 93.237 C 81.921 93.139,81.523 93.063,80.664 93.067 C 79.805 93.072,79.499 93.152,79.985 93.245 M86.133 93.248 C 86.563 93.352,87.297 93.790,87.765 94.221 C 88.233 94.653,88.848 94.913,89.132 94.799 C 89.500 94.652,89.470 94.584,89.025 94.562 C 88.683 94.545,88.084 94.180,87.695 93.750 C 87.306 93.320,86.620 92.989,86.170 93.014 C 85.383 93.058,85.382 93.067,86.133 93.248 M104.791 98.327 C 105.384 98.417,106.263 98.415,106.744 98.322 C 107.224 98.229,106.738 98.156,105.664 98.159 C 104.590 98.162,104.197 98.237,104.791 98.327 M225.489 104.492 C 225.493 105.352,225.573 105.657,225.667 105.171 C 225.760 104.685,225.757 103.982,225.659 103.609 C 225.561 103.235,225.485 103.633,225.489 104.492 M223.817 110.178 C 223.580 110.620,223.445 111.154,223.515 111.367 C 223.586 111.579,223.846 111.218,224.093 110.564 C 224.606 109.204,224.453 108.990,223.817 110.178 M116.583 113.318 C 116.239 113.982,116.027 114.595,116.112 114.680 C 116.197 114.765,116.559 114.221,116.916 113.472 C 117.719 111.787,117.441 111.658,116.583 113.318 M169.629 114.733 C 170.220 114.822,171.187 114.822,171.777 114.733 C 172.368 114.643,171.885 114.570,170.703 114.570 C 169.521 114.570,169.038 114.643,169.629 114.733 M188.379 117.457 C 188.755 117.555,189.370 117.555,189.746 117.457 C 190.122 117.359,189.814 117.278,189.063 117.278 C 188.311 117.278,188.003 117.359,188.379 117.457 M197.954 119.417 C 198.440 119.510,199.143 119.507,199.516 119.409 C 199.890 119.311,199.492 119.235,198.633 119.239 C 197.773 119.243,197.468 119.323,197.954 119.417 M215.332 124.488 C 215.708 124.586,216.323 124.586,216.699 124.488 C 217.075 124.390,216.768 124.309,216.016 124.309 C 215.264 124.309,214.956 124.390,215.332 124.488 M256.934 170.599 C 257.847 170.681,259.341 170.681,260.254 170.599 C 261.167 170.516,260.420 170.449,258.594 170.449 C 256.768 170.449,256.021 170.516,256.934 170.599 M265.923 170.979 C 266.408 171.073,267.112 171.069,267.485 170.972 C 267.858 170.874,267.461 170.797,266.602 170.802 C 265.742 170.806,265.437 170.886,265.923 170.979 M223.047 181.055 C 222.098 182.021,221.410 182.813,221.517 182.813 C 221.624 182.813,222.489 182.021,223.438 181.055 C 224.386 180.088,225.075 179.297,224.967 179.297 C 224.860 179.297,223.996 180.088,223.047 181.055 M214.233 190.332 L 213.086 191.602 214.355 190.454 C 215.054 189.823,215.625 189.252,215.625 189.185 C 215.625 188.883,215.303 189.149,214.233 190.332 M327.734 202.857 C 327.734 202.924,328.306 203.495,329.004 204.126 L 330.273 205.273 329.126 204.004 C 328.057 202.821,327.734 202.555,327.734 202.857 M134.075 207.422 C 134.075 208.174,134.155 208.481,134.254 208.105 C 134.352 207.729,134.352 207.114,134.254 206.738 C 134.155 206.362,134.075 206.670,134.075 207.422 M87.891 212.362 C 87.891 212.572,88.462 213.261,89.160 213.892 L 90.430 215.039 89.258 213.674 C 88.613 212.923,88.042 212.234,87.988 212.144 C 87.935 212.053,87.891 212.151,87.891 212.362 M260.259 216.296 C 260.853 216.386,261.732 216.383,262.212 216.291 C 262.693 216.198,262.207 216.124,261.133 216.127 C 260.059 216.130,259.666 216.206,260.259 216.296 M270.806 217.858 C 271.400 217.948,272.279 217.946,272.759 217.853 C 273.240 217.760,272.754 217.687,271.680 217.690 C 270.605 217.693,270.212 217.769,270.806 217.858 M277.253 217.861 C 277.955 217.948,279.010 217.946,279.597 217.857 C 280.184 217.768,279.609 217.697,278.320 217.699 C 277.031 217.701,276.551 217.774,277.253 217.861 M281.596 219.078 C 282.030 219.688,282.694 220.435,283.072 220.738 C 283.449 221.041,283.164 220.542,282.439 219.629 C 280.948 217.754,280.396 217.392,281.596 219.078 M102.441 218.639 C 103.032 218.729,103.999 218.729,104.590 218.639 C 105.181 218.550,104.697 218.476,103.516 218.476 C 102.334 218.476,101.851 218.550,102.441 218.639 M243.438 224.032 C 242.971 224.994,242.670 225.781,242.771 225.781 C 243.035 225.781,244.614 222.608,244.437 222.432 C 244.355 222.350,243.906 223.070,243.438 224.032 M241.860 227.165 C 241.206 228.602,241.331 228.908,242.038 227.602 C 242.369 226.992,242.566 226.420,242.477 226.331 C 242.387 226.242,242.110 226.617,241.860 227.165 M296.484 227.857 C 296.484 227.924,297.056 228.495,297.754 229.126 L 299.023 230.273 297.876 229.004 C 296.807 227.821,296.484 227.555,296.484 227.857 M192.286 242.773 C 192.290 243.633,192.370 243.938,192.464 243.452 C 192.557 242.967,192.554 242.263,192.456 241.890 C 192.358 241.517,192.282 241.914,192.286 242.773 M191.106 248.438 C 191.106 249.189,191.187 249.497,191.285 249.121 C 191.383 248.745,191.383 248.130,191.285 247.754 C 191.187 247.378,191.106 247.686,191.106 248.438 M230.976 255.469 C 230.976 256.650,231.050 257.134,231.139 256.543 C 231.229 255.952,231.229 254.985,231.139 254.395 C 231.050 253.804,230.976 254.287,230.976 255.469 M191.114 255.273 C 191.118 256.133,191.198 256.438,191.292 255.952 C 191.385 255.467,191.382 254.763,191.284 254.390 C 191.186 254.017,191.110 254.414,191.114 255.273 M191.505 259.570 C 191.509 260.430,191.589 260.735,191.683 260.249 C 191.776 259.763,191.772 259.060,191.675 258.687 C 191.577 258.313,191.500 258.711,191.505 259.570 M232.130 263.477 C 232.134 264.336,232.214 264.642,232.308 264.156 C 232.401 263.670,232.397 262.967,232.300 262.593 C 232.202 262.220,232.125 262.617,232.130 263.477 M190.731 267.188 C 190.731 268.154,190.808 268.550,190.901 268.066 C 190.994 267.583,190.994 266.792,190.901 266.309 C 190.808 265.825,190.731 266.221,190.731 267.188 M191.122 272.266 C 191.122 273.232,191.198 273.628,191.291 273.145 C 191.384 272.661,191.384 271.870,191.291 271.387 C 191.198 270.903,191.122 271.299,191.122 272.266 M244.922 289.575 C 244.922 289.643,245.493 290.214,246.191 290.845 L 247.461 291.992 246.314 290.723 C 245.244 289.539,244.922 289.274,244.922 289.575 M195.340 292.773 C 195.340 292.988,195.591 293.604,195.898 294.141 C 196.205 294.678,196.457 294.941,196.457 294.727 C 196.457 294.512,196.205 293.896,195.898 293.359 C 195.591 292.822,195.340 292.559,195.340 292.773 M253.694 295.339 C 253.553 295.569,253.147 295.646,252.793 295.511 C 252.330 295.335,252.267 295.386,252.570 295.691 C 252.874 295.998,253.311 295.950,254.133 295.522 C 254.845 295.150,255.025 294.926,254.613 294.924 C 254.250 294.923,253.836 295.110,253.694 295.339 M280.439 297.949 L 279.492 299.023 280.664 298.047 C 281.309 297.510,281.909 297.026,281.999 296.973 C 282.088 296.919,281.987 296.875,281.774 296.875 C 281.561 296.875,280.960 297.358,280.439 297.949 M275.879 299.879 C 276.255 299.977,276.870 299.977,277.246 299.879 C 277.622 299.780,277.314 299.700,276.563 299.700 C 275.811 299.700,275.503 299.780,275.879 299.879 M273.340 300.614 C 271.825 301.436,271.997 301.719,273.535 300.937 C 275.008 300.188,275.268 299.994,274.772 300.016 C 274.575 300.024,273.931 300.294,273.340 300.614 M288.710 300.488 C 288.803 300.542,289.667 301.289,290.631 302.148 L 292.383 303.711 290.839 302.051 C 289.989 301.138,289.125 300.391,288.918 300.391 C 288.711 300.391,288.618 300.435,288.710 300.488 M296.484 309.497 C 296.484 309.564,297.056 310.136,297.754 310.767 L 299.023 311.914 297.876 310.645 C 296.807 309.461,296.484 309.195,296.484 309.497 M216.209 318.298 C 216.635 318.801,217.337 319.394,217.769 319.615 C 218.599 320.040,218.478 319.909,216.604 318.354 C 215.476 317.417,215.463 317.415,216.209 318.298 M227.734 325.193 C 227.734 325.455,232.470 327.817,232.644 327.642 C 232.723 327.564,231.650 326.938,230.261 326.253 C 228.871 325.568,227.734 325.091,227.734 325.193 M302.384 331.479 C 301.654 331.997,301.248 332.422,301.483 332.422 C 301.718 332.422,302.403 331.988,303.006 331.458 C 304.386 330.243,304.109 330.253,302.384 331.479 M297.643 334.668 L 295.508 336.914 297.843 334.766 C 299.127 333.584,300.255 332.573,300.349 332.520 C 300.444 332.466,300.354 332.422,300.149 332.422 C 299.945 332.422,298.817 333.433,297.643 334.668 M274.128 342.471 C 274.830 342.558,275.885 342.556,276.472 342.467 C 277.059 342.377,276.484 342.306,275.195 342.309 C 273.906 342.311,273.426 342.384,274.128 342.471 M278.223 342.847 C 278.599 342.946,279.214 342.946,279.590 342.847 C 279.966 342.749,279.658 342.669,278.906 342.669 C 278.154 342.669,277.847 342.749,278.223 342.847 " stroke="none" fill="#6c838c" fill-rule="evenodd"></path><path id="path3" d="M87.207 52.222 C 87.583 52.321,88.198 52.321,88.574 52.222 C 88.950 52.124,88.643 52.044,87.891 52.044 C 87.139 52.044,86.831 52.124,87.207 52.222 M95.996 53.010 C 96.479 53.103,97.271 53.103,97.754 53.010 C 98.237 52.917,97.842 52.841,96.875 52.841 C 95.908 52.841,95.513 52.917,95.996 53.010 M108.506 55.470 C 110.164 56.481,110.707 56.480,109.180 55.469 C 108.535 55.042,107.832 54.692,107.617 54.692 C 107.402 54.691,107.802 55.041,108.506 55.470 M125.488 58.863 C 125.864 58.961,126.479 58.961,126.855 58.863 C 127.231 58.765,126.924 58.684,126.172 58.684 C 125.420 58.684,125.112 58.765,125.488 58.863 M79.778 61.719 C 79.778 62.471,79.859 62.778,79.957 62.402 C 80.055 62.026,80.055 61.411,79.957 61.035 C 79.859 60.659,79.778 60.967,79.778 61.719 M77.078 74.219 C 77.078 75.615,77.149 76.187,77.236 75.488 C 77.322 74.790,77.322 73.647,77.236 72.949 C 77.149 72.251,77.078 72.822,77.078 74.219 M181.348 74.488 C 181.724 74.586,182.339 74.586,182.715 74.488 C 183.091 74.390,182.783 74.309,182.031 74.309 C 181.279 74.309,180.972 74.390,181.348 74.488 M204.688 80.273 C 205.225 80.580,205.840 80.832,206.055 80.832 C 206.270 80.832,206.006 80.580,205.469 80.273 C 204.932 79.966,204.316 79.715,204.102 79.715 C 203.887 79.715,204.150 79.966,204.688 80.273 M74.276 87.750 C 74.235 89.178,74.416 89.972,74.902 90.502 C 75.278 90.912,75.410 90.993,75.195 90.681 C 74.980 90.369,74.699 89.131,74.569 87.928 L 74.334 85.742 74.276 87.750 M225.488 86.988 C 225.864 87.086,226.479 87.086,226.855 86.988 C 227.231 86.890,226.924 86.809,226.172 86.809 C 225.420 86.809,225.112 86.890,225.488 86.988 M228.374 88.086 C 229.277 89.628,229.297 89.651,229.297 89.171 C 229.297 88.944,228.935 88.343,228.492 87.836 L 227.688 86.914 228.374 88.086 M87.109 94.141 C 87.605 94.570,88.098 94.922,88.206 94.922 C 88.314 94.922,88.084 94.570,87.695 94.141 C 87.306 93.711,86.813 93.359,86.598 93.359 C 86.384 93.359,86.614 93.711,87.109 94.141 M89.737 95.204 C 90.431 95.290,91.661 95.292,92.472 95.207 C 93.282 95.122,92.715 95.052,91.211 95.050 C 89.707 95.048,89.044 95.118,89.737 95.204 M95.410 95.592 C 96.001 95.682,96.968 95.682,97.559 95.592 C 98.149 95.503,97.666 95.430,96.484 95.430 C 95.303 95.430,94.819 95.503,95.410 95.592 M108.112 98.721 C 108.815 98.808,109.869 98.806,110.456 98.717 C 111.043 98.627,110.469 98.556,109.180 98.559 C 107.891 98.561,107.410 98.634,108.112 98.721 M115.141 100.667 C 115.627 100.760,116.330 100.757,116.704 100.659 C 117.077 100.561,116.680 100.485,115.820 100.489 C 114.961 100.493,114.655 100.573,115.141 100.667 M118.876 109.082 C 118.441 109.565,117.945 110.225,117.774 110.547 C 117.445 111.169,117.534 111.084,119.117 109.277 C 119.635 108.687,119.970 108.203,119.863 108.203 C 119.755 108.203,119.311 108.599,118.876 109.082 M170.215 115.126 C 170.913 115.213,172.056 115.213,172.754 115.126 C 173.452 115.040,172.881 114.969,171.484 114.969 C 170.088 114.969,169.517 115.040,170.215 115.126 M178.418 115.901 C 178.901 115.994,179.692 115.994,180.176 115.901 C 180.659 115.808,180.264 115.731,179.297 115.731 C 178.330 115.731,177.935 115.808,178.418 115.901 M112.981 124.609 C 112.981 125.361,113.062 125.669,113.160 125.293 C 113.258 124.917,113.258 124.302,113.160 123.926 C 113.062 123.550,112.981 123.857,112.981 124.609 M147.747 166.016 C 147.747 166.768,147.827 167.075,147.926 166.699 C 148.024 166.323,148.024 165.708,147.926 165.332 C 147.827 164.956,147.747 165.264,147.747 166.016 M249.126 170.198 C 249.612 170.292,250.315 170.288,250.688 170.190 C 251.062 170.092,250.664 170.016,249.805 170.020 C 248.945 170.025,248.640 170.105,249.126 170.198 M254.395 170.191 C 254.771 170.289,255.386 170.289,255.762 170.191 C 256.138 170.093,255.830 170.013,255.078 170.013 C 254.326 170.013,254.019 170.093,254.395 170.191 M261.822 170.202 C 262.416 170.292,263.294 170.290,263.775 170.197 C 264.255 170.104,263.770 170.031,262.695 170.034 C 261.621 170.037,261.228 170.112,261.822 170.202 M276.270 170.592 C 276.860 170.682,277.827 170.682,278.418 170.592 C 279.009 170.503,278.525 170.430,277.344 170.430 C 276.162 170.430,275.679 170.503,276.270 170.592 M228.461 176.586 L 227.539 177.390 228.711 176.704 C 230.253 175.801,230.276 175.781,229.796 175.781 C 229.569 175.781,228.968 176.143,228.461 176.586 M303.320 178.581 C 303.750 178.819,304.462 179.297,304.902 179.643 C 305.342 179.990,305.207 179.790,304.602 179.199 C 303.998 178.608,303.286 178.130,303.021 178.137 C 302.756 178.143,302.891 178.343,303.320 178.581 M223.047 180.664 C 222.098 181.631,221.410 182.422,221.517 182.422 C 221.624 182.422,222.489 181.631,223.438 180.664 C 224.386 179.697,225.075 178.906,224.967 178.906 C 224.860 178.906,223.996 179.697,223.047 180.664 M314.938 187.109 C 315.382 187.853,315.946 188.136,317.303 188.296 C 318.283 188.412,318.999 188.368,318.894 188.198 C 318.789 188.029,318.033 187.891,317.212 187.891 C 316.128 187.891,315.534 187.651,315.038 187.012 L 314.355 186.133 314.938 187.109 M207.961 198.926 C 206.617 201.207,206.529 201.402,207.214 200.586 C 208.007 199.641,208.691 198.438,208.435 198.438 C 208.333 198.438,208.120 198.657,207.961 198.926 M328.906 203.711 C 329.635 204.463,330.319 205.078,330.427 205.078 C 330.534 205.078,330.026 204.463,329.297 203.711 C 328.568 202.959,327.884 202.344,327.776 202.344 C 327.669 202.344,328.177 202.959,328.906 203.711 M266.710 218.255 C 267.628 218.338,269.035 218.337,269.835 218.253 C 270.635 218.169,269.883 218.101,268.164 218.103 C 266.445 218.104,265.791 218.173,266.710 218.255 M281.724 219.727 C 282.603 220.693,283.393 221.484,283.478 221.484 C 283.563 221.484,282.971 220.693,282.163 219.727 C 281.355 218.760,280.566 217.969,280.409 217.969 C 280.252 217.969,280.844 218.760,281.724 219.727 M102.767 218.893 C 102.856 218.972,103.788 219.129,104.838 219.242 C 106.004 219.367,106.536 219.314,106.205 219.105 C 105.698 218.784,102.413 218.582,102.767 218.893 M297.546 229.305 C 298.237 230.031,298.869 230.545,298.950 230.449 C 299.031 230.352,298.465 229.759,297.693 229.130 L 296.289 227.986 297.546 229.305 M239.907 231.853 C 239.253 233.289,239.378 233.596,240.085 232.290 C 240.416 231.680,240.613 231.108,240.524 231.019 C 240.434 230.929,240.157 231.305,239.907 231.853 M190.764 251.758 C 190.762 253.691,190.829 254.532,190.910 253.625 C 190.992 252.718,190.993 251.136,190.913 250.109 C 190.832 249.082,190.765 249.824,190.764 251.758 M190.346 265.039 C 190.349 266.113,190.425 266.506,190.515 265.913 C 190.604 265.319,190.602 264.440,190.509 263.959 C 190.417 263.479,190.343 263.965,190.346 265.039 M190.716 270.313 C 190.716 271.064,190.796 271.372,190.894 270.996 C 190.993 270.620,190.993 270.005,190.894 269.629 C 190.796 269.253,190.716 269.561,190.716 270.313 M235.158 274.689 C 235.152 275.727,236.238 276.950,237.641 277.487 C 238.977 277.999,239.126 278.006,238.500 277.530 C 238.083 277.212,237.509 276.953,237.224 276.953 C 236.940 276.953,236.359 276.382,235.933 275.684 C 235.507 274.985,235.159 274.538,235.158 274.689 M245.313 289.575 C 245.313 289.643,245.884 290.214,246.582 290.845 L 247.852 291.992 246.704 290.723 C 245.635 289.539,245.313 289.274,245.313 289.575 M253.343 295.130 C 252.926 295.445,252.759 295.703,252.972 295.703 C 253.185 295.703,253.526 295.540,253.730 295.340 C 253.935 295.141,254.717 294.905,255.469 294.817 L 256.836 294.656 255.469 294.606 C 254.717 294.579,253.760 294.814,253.343 295.130 M260.156 296.677 C 260.156 296.941,263.329 298.520,263.506 298.343 C 263.588 298.261,262.868 297.812,261.905 297.344 C 260.943 296.877,260.156 296.577,260.156 296.677 M280.641 297.099 C 280.224 297.437,280.141 297.579,280.455 297.415 C 280.770 297.250,281.649 296.993,282.409 296.845 C 283.782 296.576,283.783 296.574,282.594 296.529 C 281.937 296.505,281.058 296.761,280.641 297.099 M278.796 298.678 C 278.664 298.810,277.975 299.056,277.266 299.224 C 276.145 299.490,276.107 299.535,276.976 299.569 C 277.526 299.591,278.317 299.351,278.734 299.036 C 279.151 298.720,279.390 298.457,279.264 298.450 C 279.139 298.443,278.928 298.546,278.796 298.678 M288.712 300.098 C 288.805 300.151,289.757 300.986,290.828 301.953 L 292.773 303.711 291.032 301.855 C 290.074 300.835,289.122 300.000,288.916 300.000 C 288.710 300.000,288.618 300.044,288.712 300.098 M203.906 305.982 C 203.906 306.049,204.478 306.620,205.176 307.251 L 206.445 308.398 205.298 307.129 C 204.229 305.946,203.906 305.680,203.906 305.982 M296.484 309.107 C 296.484 309.174,297.056 309.745,297.754 310.376 L 299.023 311.523 297.876 310.254 C 296.807 309.071,296.484 308.805,296.484 309.107 M213.770 314.279 C 214.360 314.935,214.844 315.856,214.844 316.324 C 214.844 316.792,215.391 317.749,216.060 318.451 L 217.276 319.727 216.255 318.427 C 215.694 317.712,215.234 316.734,215.234 316.254 C 215.234 315.764,214.677 314.876,213.965 314.233 L 212.695 313.086 213.770 314.279 M222.266 322.441 C 222.266 322.548,222.793 322.909,223.438 323.242 C 224.082 323.575,224.609 323.760,224.609 323.653 C 224.609 323.545,224.082 323.185,223.438 322.852 C 222.793 322.518,222.266 322.333,222.266 322.441 M307.012 323.936 C 307.202 325.545,307.210 325.553,307.343 324.267 C 307.418 323.541,307.330 322.799,307.148 322.617 C 306.966 322.435,306.905 323.028,307.012 323.936 M236.133 329.361 C 236.563 329.598,237.588 330.515,238.411 331.400 L 239.907 333.008 238.490 331.187 C 237.214 329.548,236.371 328.884,235.613 328.918 C 235.469 328.925,235.703 329.124,236.133 329.361 M297.837 334.863 L 295.898 336.914 297.949 334.976 C 299.077 333.909,300.000 332.987,300.000 332.925 C 300.000 332.633,299.638 332.958,297.837 334.863 M259.082 340.113 C 259.458 340.211,260.073 340.211,260.449 340.113 C 260.825 340.015,260.518 339.934,259.766 339.934 C 259.014 339.934,258.706 340.015,259.082 340.113 M275.103 342.858 C 275.697 342.948,276.576 342.946,277.056 342.853 C 277.537 342.760,277.051 342.687,275.977 342.690 C 274.902 342.693,274.509 342.769,275.103 342.858 " stroke="none" fill="#7f949e" fill-rule="evenodd"></path><path id="path4" d="M82.916 93.249 C 83.509 93.339,84.388 93.336,84.869 93.244 C 85.349 93.151,84.863 93.078,83.789 93.080 C 82.715 93.083,82.322 93.159,82.916 93.249 M271.006 170.599 C 271.925 170.682,273.331 170.680,274.131 170.596 C 274.931 170.513,274.180 170.445,272.461 170.446 C 270.742 170.448,270.088 170.517,271.006 170.599 " stroke="none" fill="#728494" fill-rule="evenodd"></path></g></svg>